<?xml version="1.0" encoding="utf-8"?>
<!-- Generator: Adobe Illustrator 24.2.0, SVG Export Plug-In . SVG Version: 6.00 Build 0)  -->
<svg version="1.1" id="Layer_1" xmlns="http://www.w3.org/2000/svg" xmlns:xlink="http://www.w3.org/1999/xlink" x="0px" y="0px"
	 viewBox="0 0 1600 533.33" style="enable-background:new 0 0 1600 533.33;" xml:space="preserve">
<desc>Lenovo Solid Fill Logo for use in print and digital applications</desc>
<metadata><?xpacket begin="﻿" id="W5M0MpCehiHzreSzNTczkc9d"?>
<x:xmpmeta xmlns:x="adobe:ns:meta/" x:xmptk="Adobe XMP Core 5.6-c148 79.164050, 2019/10/01-18:03:16        ">
   <rdf:RDF xmlns:rdf="http://www.w3.org/1999/02/22-rdf-syntax-ns#">
      <rdf:Description rdf:about=""
            xmlns:lenovo="http://www.lenovo.com/namespaces/basic/dam/1.0/"
            xmlns:dam="http://www.day.com/dam/1.0"
            xmlns:dc="http://purl.org/dc/elements/1.1/"
            xmlns:prism="http://prismstandard.org/namespaces/basic/2.1/"
            xmlns:cq="http://www.day.com/jcr/cq/1.0">
         <lenovo:source>Not Applicable</lenovo:source>
         <lenovo:ingestedBy>Caroline Stanton(cstanton@Lenovo.com)</lenovo:ingestedBy>
         <lenovo:usageRights>None</lenovo:usageRights>
         <lenovo:ingestedDate>2021-12-01T17:09:25.899Z</lenovo:ingestedDate>
         <lenovo:assetType>
            <rdf:Bag>
               <rdf:li>Logo</rdf:li>
            </rdf:Bag>
         </lenovo:assetType>
         <lenovo:businessUnit>
            <rdf:Bag>
               <rdf:li>All</rdf:li>
            </rdf:Bag>
         </lenovo:businessUnit>
         <dam:extracted>2021-12-01T17:09:25.582Z</dam:extracted>
         <dam:sha1>074b5a2af3e1b69ef64bcc27c871c3b6fa447ca1</dam:sha1>
         <dam:size>2223</dam:size>
         <dc:format>image/svg+xml</dc:format>
         <dc:modified>2021-12-01T17:10:41.468Z</dc:modified>
         <dc:description>
            <rdf:Alt>
               <rdf:li xml:lang="x-default">Lenovo Solid Fill Logo for use in print and digital applications</rdf:li>
            </rdf:Alt>
         </dc:description>
         <prism:expirationDate>2050-04-23T13:05:00.000-04:00</prism:expirationDate>
         <cq:tags>
            <rdf:Bag>
               <rdf:li>brand0</rdf:li>
               <rdf:li>lenovo_logo0</rdf:li>
               <rdf:li>solid_logo</rdf:li>
               <rdf:li>solid_fill</rdf:li>
            </rdf:Bag>
         </cq:tags>
      </rdf:Description>
   </rdf:RDF>
</x:xmpmeta>
                                                                                                    
                                                                                                    
                                                                                                    
                                                                                                    
                                                                                                    
                                                                                                    
                                                                                                    
                                                                                                    
                                                                                                    
                                                                                                    
                                                                                                    
                                                                                                    
                                                                                                    
                                                                                                    
                                                                                                    
                                                                                                    
                                                                                                    
                                                                                                    
                                                                                                    
                                                                                                    
                           
<?xpacket end="w"?></metadata>
<style type="text/css">
	.st0{fill:#E1251B;}
	.st1{fill:#FFFFFF;}
</style>
<g>
	<rect x="0" class="st0" width="1600" height="533.33"/>
	<g>
		<path class="st1" d="M697.05,179.75c-23.63,0-50.51,10.95-66.93,32.89l0.01-0.04l-0.01,0.02l0.01-29.42h-56.37v205.27h56.36
			v-116.8c0-21.02,16.29-43.37,46.47-43.37c23.33,0,47.46,16.22,47.46,43.37v116.8h56.37V261.21
			C780.41,214.01,746.64,179.75,697.05,179.75"/>
		<polygon class="st1" points="1181.02,183.2 1130.06,323.03 1079.1,183.2 1014.72,183.2 1099.18,388.39 1160.94,388.39 
			1245.4,183.2 		"/>
		<path class="st1" d="M513.77,325.35c-23.73,17.55-37.28,21.75-58.91,21.75c-19.47,0-34.71-6.04-45.46-16.65l144.1-59.78
			c-3.14-22.28-11.59-42.17-24.61-57.3c-18.93-22-46.96-33.63-81.07-33.63c-61.98,0-108.72,45.73-108.72,106.11
			c0,61.95,46.84,106.1,114.92,106.1c38.14,0,77.15-18.08,95.38-39.2L513.77,325.35z M405.48,245.04
			c9.6-12.89,24.89-20.45,43.36-20.45c20.32,0,35.72,11.6,43.69,28.72l-98.47,40.85C391.36,273.2,396.72,256.8,405.48,245.04z"/>
		<polygon class="st1" points="333.73,336.7 205.62,336.7 205.62,121.81 148.49,121.81 148.49,388.46 333.73,388.46 		"/>
		<path class="st1" d="M1346.61,391.92c-61.64,0-109.94-45.92-109.94-106.08c0-59.49,48.63-106.1,110.7-106.1
			c61.64,0,109.93,45.92,109.93,106.1C1457.3,345.31,1408.68,391.92,1346.61,391.92 M1346.61,228.04
			c-31.48,0-54.33,23.85-54.33,57.79c0,32.4,24.2,57.79,55.09,57.79c31.48,0,54.33-24.51,54.33-57.79
			C1401.7,253.42,1377.5,228.04,1346.61,228.04"/>
		<path class="st1" d="M912.64,391.92c-61.64,0-109.94-45.92-109.94-106.08c0-59.49,48.63-106.1,110.7-106.1
			c61.64,0,109.93,45.92,109.93,106.1C1023.34,345.31,974.71,391.92,912.64,391.92 M912.64,228.04c-31.48,0-54.33,23.85-54.33,57.79
			c0,32.4,24.2,57.79,55.09,57.79c31.48,0,54.33-24.51,54.33-57.79C967.74,253.42,943.53,228.04,912.64,228.04"/>
	</g>
</g>
</svg>
